<?xml version="1.0" encoding="UTF-8" standalone="no"?>
<svg
   xmlns:dc="http://purl.org/dc/elements/1.1/"
   xmlns:cc="http://creativecommons.org/ns#"
   xmlns:rdf="http://www.w3.org/1999/02/22-rdf-syntax-ns#"
   xmlns:svg="http://www.w3.org/2000/svg"
   xmlns="http://www.w3.org/2000/svg"
   xmlns:sodipodi="http://sodipodi.sourceforge.net/DTD/sodipodi-0.dtd"
   xmlns:inkscape="http://www.inkscape.org/namespaces/inkscape"
   inkscape:version="1.0 (4035a4fb49, 2020-05-01)"
   sodipodi:docname="add.svg"
   xml:space="preserve"
   viewBox="0 0 32 32"
   height="32"
   width="32"
   y="0px"
   x="0px"
   id="Capa_1"
   version="1.1"><metadata
   id="metadata1621"><rdf:RDF><cc:Work
       rdf:about=""><dc:format>image/svg+xml</dc:format><dc:type
         rdf:resource="http://purl.org/dc/dcmitype/StillImage" /><dc:title></dc:title></cc:Work></rdf:RDF></metadata><defs
   id="defs1619" /><sodipodi:namedview
   inkscape:current-layer="Capa_1"
   inkscape:window-maximized="1"
   inkscape:window-y="-8"
   inkscape:window-x="-8"
   inkscape:cy="51.68773"
   inkscape:cx="53.076214"
   inkscape:zoom="3.9611542"
   showgrid="false"
   id="namedview1617"
   inkscape:window-height="705"
   inkscape:window-width="1366"
   inkscape:pageshadow="2"
   inkscape:pageopacity="0"
   guidetolerance="10"
   gridtolerance="10"
   objecttolerance="10"
   borderopacity="1"
   bordercolor="#666666"
   pagecolor="#ffffff" />

<g
   id="g1586">
</g>
<g
   id="g1588">
</g>
<g
   id="g1590">
</g>
<g
   id="g1592">
</g>
<g
   id="g1594">
</g>
<g
   id="g1596">
</g>
<g
   id="g1598">
</g>
<g
   id="g1600">
</g>
<g
   id="g1602">
</g>
<g
   id="g1604">
</g>
<g
   id="g1606">
</g>
<g
   id="g1608">
</g>
<g
   id="g1610">
</g>
<g
   id="g1612">
</g>
<g
   id="g1614">
</g>
<path
   style="opacity:1;fill:#7c6f91;stroke:none;stroke-width:0.248301;stroke-opacity:0.453815"
   d="m 8.8488773,20.608681 c -0.592126,-0.58028 -0.614689,-0.724411 -0.614689,-3.926694 v -3.324303 h -3.341976 c -3.672788,0 -4.17088896,-0.183825 -4.17088896,-1.539274 0,-1.16193 0.74806196,-1.405747 4.31301196,-1.405747 h 3.199853 V 7.4676428 c 0,-2.6177962 0.05565,-2.9995584 0.500858,-3.4358578 0.640342,-0.62753 1.6135177,-0.62753 2.2538587,0 0.445207,0.4362994 0.500859,0.8180616 0.500859,3.4358578 v 2.9450202 h 3.487827 c 3.469676,0 3.490528,0.0034 4.006862,0.646643 0.648838,0.80836 0.652633,1.185778 0.01817,1.80754 -0.453158,0.444092 -0.834763,0.490838 -4.006862,0.490838 h -3.506 v 3.418044 c 0,3.400256 -0.0035,3.420693 -0.659846,3.926694 -0.8549037,0.659014 -1.2310807,0.641214 -1.9810407,-0.09374 z"
   id="path2214" /></svg>
