<?xml version="1.0" encoding="UTF-8" standalone="no"?>
<svg
   xmlns:dc="http://purl.org/dc/elements/1.1/"
   xmlns:cc="http://creativecommons.org/ns#"
   xmlns:rdf="http://www.w3.org/1999/02/22-rdf-syntax-ns#"
   xmlns:svg="http://www.w3.org/2000/svg"
   xmlns="http://www.w3.org/2000/svg"
   xmlns:sodipodi="http://sodipodi.sourceforge.net/DTD/sodipodi-0.dtd"
   xmlns:inkscape="http://www.inkscape.org/namespaces/inkscape"
   version="1.1"
   id="Capa_1"
   x="0px"
   y="0px"
   width="32"
   height="32"
   viewBox="0 0 32 32"
   xml:space="preserve"
   sodipodi:docname="change.svg"
   inkscape:version="1.0 (4035a4fb49, 2020-05-01)"><metadata
   id="metadata1621"><rdf:RDF><cc:Work
       rdf:about=""><dc:format>image/svg+xml</dc:format><dc:type
         rdf:resource="http://purl.org/dc/dcmitype/StillImage" /><dc:title /></cc:Work></rdf:RDF></metadata><defs
   id="defs1619" /><sodipodi:namedview
   inkscape:document-rotation="0"
   pagecolor="#ffffff"
   bordercolor="#666666"
   borderopacity="1"
   objecttolerance="10"
   gridtolerance="10"
   guidetolerance="10"
   inkscape:pageopacity="0"
   inkscape:pageshadow="2"
   inkscape:window-width="1366"
   inkscape:window-height="705"
   id="namedview1617"
   showgrid="false"
   inkscape:zoom="11.203836"
   inkscape:cx="20.219675"
   inkscape:cy="12.527894"
   inkscape:window-x="-8"
   inkscape:window-y="-8"
   inkscape:window-maximized="1"
   inkscape:current-layer="Capa_1" />
<g
   id="g1584"
   style="fill:#6f6f91"
   transform="matrix(0.05039349,0,0,0.04209748,-1.571105,0.81357062)">
	<path
   d="m 479,265.166 c 0,57.977 -25.452,112.68 -69.818,150.09 l -38.538,-45.727 c 30.854,-26.013 48.551,-64.055 48.551,-104.363 0,-72.504 -56.885,-131.795 -128.352,-136.009 H 261.59 l 24.636,62.368 c 0.828,2.086 0.154,4.471 -1.643,5.822 -1.791,1.356 -4.268,1.351 -6.053,-0.024 L 156.032,103.138 c -1.229,-0.952 -1.954,-2.403 -1.954,-3.966 0,-1.554 0.724,-3.021 1.954,-3.963 L 278.542,1.029 C 279.434,0.337 280.504,0 281.58,0 c 1.063,0 2.122,0.331 3.015,1.005 1.797,1.348 2.465,3.742 1.643,5.828 l -24.636,62.358 21.185,0.062 v -0.316 c 7.571,0 15.043,0.479 22.396,1.321 4.877,0.508 10.32,1.229 14.452,2.202 C 410.257,89.761 479,169.562 479,265.166 Z m -214.263,80.791 c -1.779,-1.377 -4.262,-1.383 -6.053,-0.023 -1.791,1.354 -2.461,3.736 -1.64,5.828 l 24.636,62.365 h -29.252 c -71.452,-4.221 -128.346,-63.518 -128.346,-136.014 0,-37.728 15.058,-72.832 42.398,-98.845 L 125.249,135.942 C 85.93,173.36 64.276,223.844 64.276,278.113 c 0,95.596 68.733,175.402 159.375,192.703 4.14,0.97 9.581,1.69 14.455,2.199 7.353,0.845 14.818,1.324 22.396,1.324 v -0.319 l 21.184,0.064 -24.636,62.358 c -0.827,2.099 -0.15,4.486 1.64,5.828 0.896,0.674 1.951,1.005 3.015,1.005 1.079,0 2.143,-0.337 3.044,-1.028 l 122.492,-94.188 c 1.229,-0.94 1.956,-2.406 1.956,-3.961 0,-1.561 -0.727,-3.014 -1.956,-3.96 z"
   id="path1582"
   style="fill:#6f6f91" />
</g>
<g
   id="g1586">
</g>
<g
   id="g1588">
</g>
<g
   id="g1590">
</g>
<g
   id="g1592">
</g>
<g
   id="g1594">
</g>
<g
   id="g1596">
</g>
<g
   id="g1598">
</g>
<g
   id="g1600">
</g>
<g
   id="g1602">
</g>
<g
   id="g1604">
</g>
<g
   id="g1606">
</g>
<g
   id="g1608">
</g>
<g
   id="g1610">
</g>
<g
   id="g1612">
</g>
<g
   id="g1614">
</g>
</svg>
